<?xml version="1.0" encoding="utf-8"?>
<!-- Generator: Adobe Illustrator 24.1.2, SVG Export Plug-In . SVG Version: 6.00 Build 0)  -->
<svg version="1.1" xmlns="http://www.w3.org/2000/svg" xmlns:xlink="http://www.w3.org/1999/xlink" x="0px" y="0px"
	 viewBox="0 0 293 60" style="enable-background:new 0 0 293 60;" xml:space="preserve">
<style type="text/css">
	.st0{enable-background:new    ;}
	.st1{fill:#FFFFFF;}
	.st2{fill:none;}
	.st3{font-family:'CopperplateGothic-Bold';}
	.st4{font-size:25.7808px;}
</style>
<g id="Shape_1_1_" class="st0">
	<g id="Shape_1">
		<g>
			<path class="st1" d="M52.66,41.53c-1.25-0.66-2.55-1.22-3.95-1.47c-1.18-0.21-2.38-0.27-3.57-0.36c-0.33-0.03-0.66,0.06-1.05,0.1
				c0.62-0.87,1.25-1.64,1.77-2.49c1.09-1.77,1.88-3.68,2.32-5.72c0.24-1.12,0.36-2.25,0.43-3.4c0.14-2.44-0.29-4.78-1.08-7.07
				c-0.63-1.79-1.55-3.42-2.69-4.93c-1.77-2.32-3.96-4.12-6.56-5.38c-1.57-0.76-3.23-1.28-4.96-1.57c-1.39-0.23-2.79-0.3-4.18-0.21
				c-2.16,0.13-4.23,0.66-6.21,1.55c-1.78,0.81-3.39,1.87-4.84,3.19c-2.61,2.38-4.38,5.27-5.34,8.68c-0.39,1.39-0.66,2.8-0.65,4.26
				c0,0.07-0.05,0.14-0.07,0.21v0.99c0.03,0.13,0.07,0.25,0.07,0.38c0.01,2.16,0.51,4.22,1.31,6.21c0.82,2.02,1.95,3.83,3.41,5.45
				c1.33,1.48,2.86,2.68,4.56,3.68c1.92,1.12,3.98,1.81,6.15,2.17c1.46,0.24,2.94,0.25,4.42,0.12c1.91-0.16,3.72-0.63,5.48-1.35
				c1.11-0.45,2.2-0.92,3.32-1.32c1.87-0.67,3.82-0.87,5.79-0.73c1.88,0.14,3.65,0.72,5.28,1.71c0.96,0.58,1.97,0.14,2.13-0.97
				c0-0.03,0.05-0.06,0.07-0.09V43C53.88,42.21,53.29,41.86,52.66,41.53z M17.23,24.06c0.06-1.79,1.78-3.91,4.21-3.78
				c1.83,0.1,3.81,1.76,3.68,4.07c0.18,1.86-1.72,4.1-4.24,3.92C19.12,28.14,17.16,26.51,17.23,24.06z M24.7,39.11
				c-2.37,0.02-3.98-1.84-3.98-4.03c-0.01-2.1,1.72-4.06,4.25-3.94c1.96,0.09,3.72,1.87,3.69,4.04
				C28.63,37.31,26.87,39.17,24.7,39.11z M30.32,29.1c-0.72,0-1.58-0.71-1.59-1.59c-0.01-0.85,0.83-1.7,1.61-1.59
				c0.68-0.1,1.57,0.57,1.58,1.57C31.93,28.44,31.08,29.1,30.32,29.1z M30.35,21.59c-2.21,0.02-3.98-1.71-3.99-4.05
				c0-2.16,1.79-3.99,3.95-3.97c2.2-0.03,4.01,1.81,3.99,4.01C34.28,19.85,32.58,21.57,30.35,21.59z M35.95,39.11
				c-2.1,0.07-4-1.76-3.94-4.1c0.05-1.92,1.67-4.02,4.19-3.86c2.06,0.13,3.75,1.77,3.75,3.94C39.94,37.24,38.37,39.12,35.95,39.11z
				 M39.47,28.25c-1.89,0.13-4.06-1.5-3.97-4.19c0.07-1.95,1.69-3.81,4.07-3.78c2.02,0.02,3.93,1.89,3.87,4.1
				C43.38,26.39,41.57,28.41,39.47,28.25z"/>
		</g>
	</g>
</g>
<g id="Movie_Ticketing__WEB_APP_-_ComIT_1_">
	<rect x="54.05" y="12.88" class="st2" width="226.69" height="38.12"/>
	<text id="Movie_Ticketing__WEB_APP_-_ComIT" transform="matrix(1 0 0 1 54.0469 26.9785)"><tspan x="0" y="0" class="st1 st3 st4">Movie Ticket</tspan><tspan x="182.18" y="0" class="st1 st3 st4">-</tspan><tspan x="0" y="19" class="st1 st3 st4">ing</tspan></text>
</g>
</svg>
